<svg xmlns="http://www.w3.org/2000/svg" id="canvas" viewBox="640.184 599.231 2128.054 536.815"><path d="M 765.24,682.20 C 763.19 684.49, 764.96 687.89, 763.48 695.22 C 761.99 702.56, 761.03 707.79, 757.82 718.87 C 754.62 729.96, 752.13 737.04, 747.47 750.64 C 742.81 764.25, 739.93 772.08, 734.54 786.89 C 729.15 801.71, 726.07 809.91, 720.52 824.72 C 714.97 839.52, 711.94 846.96, 706.79 860.92 C 701.63 874.88, 699.11 881.97, 694.74 894.52 C 690.36 907.08, 688.49 913.16, 684.91 923.71 C 681.34 934.26, 679.63 939.16, 676.86 947.27 C 674.10 955.39, 671.71 959.21, 671.07 964.30 C 670.44 969.39, 671.56 972.19, 673.69 972.72 C 675.81 973.25, 679.39 970.71, 681.71 966.93 C 684.04 963.14, 684.26 959.16, 685.31 953.80 C 686.37 948.44, 689.25 943.33, 686.98 940.12 C 684.72 936.91, 677.24 935.59, 674.00 937.76 C 670.76 939.94, 671.79 945.70, 670.79 951.00 C 669.79 956.30, 668.40 959.91, 669.01 964.25 C 669.62 968.59, 671.72 972.25, 673.84 972.70 C 675.96 973.14, 677.71 971.19, 679.59 966.48 C 681.47 961.78, 681.18 957.40, 683.24 949.16 C 685.31 940.92, 686.75 935.93, 689.92 925.30 C 693.08 914.66, 694.88 908.57, 699.05 895.99 C 703.21 883.40, 705.68 876.33, 710.75 862.37 C 715.82 848.40, 718.81 840.97, 724.40 826.18 C 729.99 811.39, 733.09 803.19, 738.68 788.43 C 744.26 773.67, 747.30 765.92, 752.33 752.38 C 757.36 738.84, 760.18 731.83, 763.84 720.73 C 767.49 709.64, 768.63 704.29, 770.61 696.90 C 772.58 689.51, 774.80 686.73, 773.73 683.79 C 772.66 680.85, 767.29 679.91, 765.24 682.20" style="stroke: black; fill: black;"/><path d="M 644.89,641.68 C 647.22 643.35, 650.00 642.34, 656.49 641.47 C 662.98 640.61, 667.07 639.26, 677.33 637.34 C 687.59 635.41, 694.49 634.36, 707.79 631.85 C 721.09 629.35, 728.99 627.66, 743.82 624.82 C 758.65 621.98, 766.75 620.10, 781.94 617.66 C 797.12 615.22, 805.42 614.37, 819.75 612.61 C 834.09 610.84, 841.35 609.69, 853.61 608.83 C 865.87 607.97, 871.87 607.91, 881.04 608.30 C 890.20 608.69, 893.96 609.76, 899.44 610.79 C 904.92 611.81, 905.72 612.85, 908.43 613.41 C 911.13 613.98, 911.51 614.42, 912.97 613.62 C 914.43 612.82, 916.01 611.35, 915.72 609.41 C 915.44 607.46, 914.61 605.24, 911.54 603.92 C 908.47 602.59, 906.46 603.11, 900.37 602.79 C 894.28 602.46, 890.52 602.07, 881.09 602.30 C 871.66 602.53, 865.58 602.75, 853.20 603.94 C 840.82 605.12, 833.59 606.34, 819.20 608.23 C 804.81 610.11, 796.50 610.98, 781.26 613.38 C 766.01 615.78, 757.86 617.62, 742.98 620.21 C 728.10 622.81, 720.20 624.30, 706.85 626.34 C 693.50 628.39, 686.48 629.07, 676.22 630.44 C 665.97 631.81, 661.86 632.64, 655.58 633.18 C 649.30 633.71, 646.97 631.42, 644.83 633.12 C 642.69 634.82, 642.56 640.01, 644.89 641.68" style="stroke: black; fill: black;"/><path d="M 960.40,632.07 C 958.21 633.18, 959.00 634.96, 957.45 639.69 C 955.90 644.42, 955.78 647.64, 952.66 655.71 C 949.55 663.79, 947.06 669.28, 941.88 680.07 C 936.70 690.86, 933.53 697.37, 926.75 709.66 C 919.98 721.96, 915.97 728.48, 908.02 741.54 C 900.08 754.59, 895.37 761.49, 887.03 774.93 C 878.68 788.37, 874.30 795.63, 866.28 808.75 C 858.26 821.87, 854.25 828.46, 846.92 840.52 C 839.60 852.58, 835.62 858.97, 829.66 869.06 C 823.71 879.14, 821.02 883.78, 817.15 890.95 C 813.28 898.12, 809.84 901.03, 810.31 904.90 C 810.77 908.76, 815.31 911.81, 819.46 910.29 C 823.61 908.77, 824.68 904.45, 831.06 897.30 C 837.44 890.14, 841.49 884.63, 851.36 874.51 C 861.23 864.39, 867.88 857.61, 880.41 846.71 C 892.95 835.80, 900.46 829.69, 914.03 819.99 C 927.59 810.30, 935.14 805.44, 948.23 798.24 C 961.32 791.04, 968.20 787.95, 979.47 783.99 C 990.74 780.03, 996.12 778.92, 1004.57 778.43 C 1013.02 777.94, 1016.27 778.83, 1021.71 781.55 C 1027.15 784.27, 1028.85 786.34, 1031.77 792.01 C 1034.69 797.68, 1035.60 801.40, 1036.33 809.91 C 1037.05 818.42, 1036.80 823.97, 1035.41 834.55 C 1034.02 845.13, 1032.34 851.50, 1029.37 862.80 C 1026.40 874.10, 1024.24 880.26, 1020.56 891.05 C 1016.89 901.85, 1014.59 907.43, 1010.99 916.78 C 1007.39 926.13, 1004.86 930.37, 1002.55 937.80 C 1000.25 945.23, 999.76 948.52, 999.47 953.93 C 999.18 959.33, 999.40 961.95, 1001.11 964.84 C 1002.81 967.72, 1005.72 968.52, 1007.98 968.38 C 1010.23 968.23, 1011.64 965.81, 1012.39 964.10 C 1013.13 962.39, 1012.33 961.90, 1011.70 959.84 C 1011.08 957.79, 1009.64 957.85, 1009.26 953.83 C 1008.87 949.81, 1008.27 946.71, 1009.79 939.72 C 1011.31 932.74, 1013.61 928.29, 1016.86 918.93 C 1020.11 909.56, 1022.40 903.82, 1026.04 892.90 C 1029.67 881.98, 1031.91 875.81, 1035.05 864.32 C 1038.19 852.83, 1040.10 846.44, 1041.76 835.45 C 1043.41 824.45, 1044.06 818.71, 1043.33 809.34 C 1042.61 799.97, 1041.88 795.35, 1038.13 788.59 C 1034.38 781.84, 1031.38 778.72, 1024.58 775.56 C 1017.79 772.41, 1013.51 772.01, 1004.17 772.81 C 994.82 773.60, 989.44 775.19, 977.85 779.55 C 966.26 783.90, 959.44 787.16, 946.20 794.59 C 932.96 802.01, 925.40 806.93, 911.66 816.66 C 897.91 826.40, 890.36 832.53, 877.49 843.27 C 864.61 854.01, 857.64 860.58, 847.29 870.37 C 836.93 880.16, 832.34 885.60, 825.70 892.23 C 819.06 898.86, 815.53 900.59, 814.09 903.52 C 812.64 906.44, 816.62 908.76, 818.47 906.85 C 820.32 904.95, 820.18 901.05, 823.32 893.99 C 826.46 886.94, 828.69 881.83, 834.17 871.59 C 839.65 861.35, 843.60 854.93, 850.74 842.80 C 857.87 830.66, 861.86 824.04, 869.83 810.91 C 877.79 797.77, 882.16 790.54, 890.55 777.13 C 898.94 763.71, 903.65 756.84, 911.76 743.84 C 919.88 730.85, 923.99 724.33, 931.13 712.15 C 938.28 699.98, 941.68 693.58, 947.49 682.96 C 953.30 672.33, 956.27 667.03, 960.20 659.01 C 964.13 650.99, 965.49 647.85, 967.13 642.87 C 968.77 637.89, 969.74 636.28, 968.39 634.12 C 967.05 631.96, 962.59 630.95, 960.40 632.07" style="stroke: black; fill: black;"/><path d="M 1269.01,837.07 C 1270.77 834.50, 1270.25 832.19, 1268.96 828.66 C 1267.67 825.14, 1266.18 823.02, 1262.56 819.44 C 1258.95 815.86, 1256.41 812.89, 1250.88 810.77 C 1245.36 808.64, 1241.98 808.54, 1234.94 808.81 C 1227.89 809.08, 1224.25 809.60, 1215.67 812.11 C 1207.10 814.63, 1201.69 816.46, 1192.08 821.37 C 1182.47 826.27, 1177.29 829.84, 1167.62 836.64 C 1157.95 843.43, 1152.59 847.50, 1143.72 855.36 C 1134.85 863.22, 1130.42 867.76, 1123.27 875.95 C 1116.13 884.14, 1112.78 888.49, 1107.98 896.30 C 1103.18 904.11, 1101.08 907.98, 1099.27 915.00 C 1097.45 922.02, 1097.00 925.76, 1098.92 931.40 C 1100.84 937.04, 1103.33 940.01, 1108.88 943.20 C 1114.43 946.40, 1118.74 947.14, 1126.68 947.36 C 1134.61 947.58, 1139.02 946.66, 1148.55 944.30 C 1158.09 941.94, 1163.56 940.13, 1174.36 935.58 C 1185.16 931.02, 1191.62 927.94, 1202.54 921.53 C 1213.46 915.12, 1218.85 911.16, 1228.95 903.52 C 1239.05 895.88, 1244.27 891.41, 1253.06 883.32 C 1261.84 875.23, 1266.16 870.57, 1272.88 863.06 C 1279.60 855.55, 1283.49 851.37, 1286.65 845.78 C 1289.80 840.19, 1290.15 836.78, 1288.66 835.10 C 1287.16 833.43, 1283.26 833.61, 1279.18 837.43 C 1275.10 841.25, 1273.00 846.14, 1268.26 854.21 C 1263.53 862.27, 1260.29 868.14, 1255.50 877.76 C 1250.72 887.39, 1247.80 893.32, 1244.35 902.34 C 1240.91 911.36, 1239.52 915.45, 1238.28 922.88 C 1237.04 930.31, 1236.62 933.67, 1238.14 939.48 C 1239.66 945.30, 1241.41 948.68, 1245.89 951.95 C 1250.36 955.22, 1254.23 955.75, 1260.52 955.83 C 1266.81 955.91, 1270.84 954.46, 1277.33 952.36 C 1283.82 950.25, 1287.81 948.25, 1292.98 945.30 C 1298.15 942.35, 1302.15 940.69, 1303.19 937.60 C 1304.23 934.51, 1301.24 930.28, 1298.17 929.85 C 1295.09 929.42, 1292.73 933.16, 1287.84 935.46 C 1282.95 937.77, 1279.24 939.54, 1273.72 941.39 C 1268.19 943.24, 1264.61 944.34, 1260.21 944.71 C 1255.81 945.09, 1254.39 944.80, 1251.73 943.27 C 1249.07 941.73, 1248.07 940.90, 1246.92 937.05 C 1245.77 933.21, 1245.14 930.45, 1245.96 924.02 C 1246.79 917.59, 1247.76 913.45, 1251.05 904.90 C 1254.33 896.36, 1257.46 890.54, 1262.39 881.31 C 1267.32 872.08, 1270.87 866.43, 1275.72 858.74 C 1280.57 851.06, 1284.48 847.56, 1286.63 842.89 C 1288.77 838.21, 1287.77 835.68, 1286.44 835.37 C 1285.12 835.07, 1283.67 836.65, 1279.98 841.36 C 1276.30 846.08, 1274.16 851.33, 1268.03 858.94 C 1261.91 866.54, 1257.81 871.30, 1249.36 879.38 C 1240.92 887.47, 1235.72 891.87, 1225.81 899.36 C 1215.89 906.84, 1210.55 910.68, 1199.80 916.79 C 1189.05 922.90, 1182.63 925.81, 1172.06 929.90 C 1161.50 933.99, 1155.98 935.47, 1146.98 937.24 C 1137.98 939.02, 1133.78 939.21, 1127.06 938.76 C 1120.35 938.32, 1117.35 937.09, 1113.41 935.03 C 1109.46 932.97, 1108.66 932.10, 1107.35 928.46 C 1106.04 924.82, 1105.59 922.59, 1106.86 916.83 C 1108.13 911.07, 1109.51 907.07, 1113.69 899.66 C 1117.86 892.25, 1120.99 887.80, 1127.75 879.79 C 1134.51 871.78, 1138.83 867.26, 1147.48 859.61 C 1156.13 851.96, 1161.50 847.98, 1171.01 841.55 C 1180.52 835.12, 1185.71 831.77, 1195.04 827.44 C 1204.37 823.12, 1209.73 821.65, 1217.68 819.92 C 1225.62 818.19, 1229.26 818.32, 1234.77 818.80 C 1240.27 819.28, 1242.09 820.19, 1245.21 822.31 C 1248.32 824.44, 1248.65 826.47, 1250.35 829.40 C 1252.05 832.34, 1251.75 834.56, 1253.70 836.98 C 1255.66 839.40, 1257.06 841.49, 1260.12 841.51 C 1263.18 841.53, 1267.24 839.64, 1269.01 837.07" style="stroke: black; fill: black;"/><path d="M 1403.61,830.91 C 1401.14 831.50, 1401.34 833.30, 1399.17 837.13 C 1397.00 840.95, 1396.05 843.93, 1392.74 850.05 C 1389.43 856.16, 1387.05 860.38, 1382.62 867.72 C 1378.18 875.05, 1375.36 879.34, 1370.57 886.71 C 1365.78 894.08, 1362.99 898.24, 1358.67 904.59 C 1354.35 910.95, 1351.24 913.97, 1348.97 918.48 C 1346.70 922.99, 1346.14 925.31, 1347.31 927.14 C 1348.48 928.98, 1351.53 930.56, 1354.81 927.66 C 1358.09 924.76, 1358.61 920.15, 1363.72 912.64 C 1368.84 905.13, 1372.30 899.71, 1380.39 890.11 C 1388.47 880.50, 1393.81 874.44, 1404.15 864.62 C 1414.49 854.81, 1420.95 849.36, 1432.09 841.02 C 1443.23 832.68, 1449.42 828.80, 1459.85 822.90 C 1470.28 817.01, 1475.89 814.49, 1484.24 811.55 C 1492.59 808.62, 1496.49 808.09, 1501.63 808.24 C 1506.77 808.39, 1507.66 809.34, 1509.94 812.31 C 1512.22 815.28, 1513.03 817.17, 1513.03 823.09 C 1513.04 829.01, 1512.24 833.28, 1509.98 841.91 C 1507.72 850.53, 1505.65 856.09, 1501.73 866.23 C 1497.81 876.38, 1495.06 882.48, 1490.39 892.64 C 1485.71 902.80, 1482.58 908.16, 1478.35 917.05 C 1474.12 925.94, 1471.93 930.37, 1469.24 937.10 C 1466.54 943.83, 1465.63 946.50, 1464.88 950.70 C 1464.12 954.91, 1464.10 956.07, 1465.46 958.13 C 1466.81 960.19, 1469.72 960.92, 1471.65 961.00 C 1473.58 961.08, 1475.57 959.55, 1475.09 958.52 C 1474.61 957.50, 1470.06 956.22, 1469.27 955.89 C 1468.48 955.55, 1470.09 956.67, 1471.14 956.85 C 1472.20 957.04, 1473.61 957.70, 1474.53 956.81 C 1475.46 955.93, 1475.33 955.87, 1475.78 952.43 C 1476.24 948.99, 1475.09 946.15, 1476.81 939.62 C 1478.53 933.09, 1480.52 928.66, 1484.37 919.79 C 1488.22 910.91, 1491.36 905.47, 1496.07 895.25 C 1500.77 885.04, 1503.66 878.97, 1507.91 868.71 C 1512.16 858.45, 1514.61 853.11, 1517.32 843.96 C 1520.03 834.81, 1521.68 830.36, 1521.48 822.96 C 1521.28 815.55, 1520.24 811.34, 1516.31 806.94 C 1512.38 802.54, 1508.68 801.15, 1501.84 800.95 C 1495.01 800.75, 1491.05 802.42, 1482.14 805.93 C 1473.23 809.43, 1467.89 812.23, 1457.30 818.48 C 1446.71 824.73, 1440.53 828.69, 1429.20 837.17 C 1417.88 845.65, 1411.38 851.13, 1400.66 860.87 C 1389.95 870.62, 1384.34 876.53, 1375.63 885.89 C 1366.91 895.25, 1362.97 900.43, 1357.08 907.68 C 1351.18 914.92, 1347.52 917.73, 1346.14 922.11 C 1344.77 926.48, 1347.84 929.14, 1350.20 929.54 C 1352.56 929.95, 1354.77 928.21, 1357.92 924.15 C 1361.08 920.08, 1362.08 915.81, 1365.96 909.21 C 1369.84 902.60, 1372.49 898.46, 1377.32 891.12 C 1382.14 883.79, 1385.21 879.66, 1390.09 872.53 C 1394.98 865.40, 1397.78 861.45, 1401.75 855.47 C 1405.73 849.50, 1408.00 846.90, 1409.96 842.65 C 1411.92 838.39, 1412.83 836.53, 1411.56 834.19 C 1410.29 831.84, 1406.09 830.32, 1403.61 830.91" style="stroke: black; fill: black;"/><path d="M 1681.25,681.94 C 1679.08 682.41, 1679.33 682.98, 1677.61 686.63 C 1675.88 690.27, 1675.89 692.77, 1672.61 700.16 C 1669.32 707.55, 1666.86 712.83, 1661.20 723.57 C 1655.54 734.31, 1651.94 741.23, 1644.29 753.86 C 1636.64 766.49, 1631.34 773.57, 1622.96 786.71 C 1614.57 799.85, 1610.03 807.07, 1602.37 819.57 C 1594.71 832.07, 1590.92 838.20, 1584.65 849.21 C 1578.38 860.23, 1575.45 865.28, 1571.03 874.65 C 1566.61 884.01, 1565.25 888.51, 1562.55 896.05 C 1559.85 903.59, 1559.10 906.85, 1557.54 912.34 C 1555.99 917.83, 1555.24 919.92, 1554.76 923.51 C 1554.28 927.09, 1554.15 928.29, 1555.16 930.27 C 1556.17 932.24, 1558.20 932.81, 1559.81 933.37 C 1561.41 933.93, 1562.71 933.62, 1563.19 933.04 C 1563.67 932.47, 1561.99 930.98, 1562.19 930.52 C 1562.39 930.06, 1563.05 930.97, 1564.19 930.74 C 1565.33 930.51, 1567.10 930.74, 1567.88 929.38 C 1568.66 928.03, 1568.34 927.05, 1568.08 923.95 C 1567.83 920.84, 1566.39 919.02, 1566.60 913.84 C 1566.80 908.66, 1567.22 905.46, 1569.11 898.07 C 1571.01 890.68, 1572.12 886.20, 1576.06 876.89 C 1579.99 867.58, 1582.77 862.53, 1588.79 851.52 C 1594.80 840.52, 1598.55 834.34, 1606.14 821.86 C 1613.72 809.39, 1618.23 802.20, 1626.72 789.13 C 1635.20 776.07, 1640.56 769.01, 1648.58 756.53 C 1656.59 744.05, 1660.41 737.19, 1666.77 726.73 C 1673.14 716.28, 1676.11 711.34, 1680.41 704.25 C 1684.71 697.16, 1686.69 695.29, 1688.29 691.29 C 1689.90 687.29, 1689.85 686.14, 1688.44 684.27 C 1687.03 682.40, 1683.42 681.46, 1681.25 681.94" style="stroke: black; fill: black;"/><path d="M 1716.45,815.69 C 1714.01 814.02, 1710.98 815.03, 1704.48 816.07 C 1697.97 817.12, 1693.38 818.09, 1683.94 820.93 C 1674.51 823.77, 1668.46 825.80, 1657.29 830.28 C 1646.12 834.76, 1639.12 837.96, 1628.08 843.32 C 1617.03 848.68, 1611.18 851.93, 1602.08 857.06 C 1592.98 862.20, 1588.76 864.28, 1582.59 868.99 C 1576.42 873.69, 1572.99 875.50, 1571.22 880.60 C 1569.45 885.70, 1570.30 890.15, 1573.74 894.48 C 1577.18 898.82, 1580.87 899.90, 1588.44 902.30 C 1596.01 904.69, 1600.87 905.22, 1611.59 906.46 C 1622.31 907.71, 1629.34 908.07, 1642.04 908.53 C 1654.74 908.98, 1662.27 908.69, 1675.09 908.74 C 1687.92 908.80, 1694.56 908.70, 1706.16 908.79 C 1717.76 908.88, 1723.87 908.93, 1733.09 909.19 C 1742.30 909.46, 1746.28 909.98, 1752.23 910.11 C 1758.19 910.24, 1760.70 911.12, 1762.84 909.83 C 1764.98 908.53, 1765.02 905.00, 1762.93 903.64 C 1760.85 902.29, 1758.37 903.22, 1752.41 903.05 C 1746.46 902.87, 1742.42 902.73, 1733.17 902.77 C 1723.91 902.81, 1717.76 903.15, 1706.16 903.27 C 1694.55 903.38, 1687.90 903.49, 1675.13 903.36 C 1662.37 903.23, 1654.84 903.41, 1642.33 902.63 C 1629.82 901.85, 1622.81 901.15, 1612.57 899.46 C 1602.33 897.78, 1597.51 896.45, 1591.13 894.20 C 1584.75 891.95, 1583.04 890.31, 1580.67 888.22 C 1578.30 886.13, 1578.02 886.47, 1579.30 883.76 C 1580.59 881.06, 1581.92 878.95, 1587.10 874.68 C 1592.27 870.41, 1596.48 867.63, 1605.19 862.41 C 1613.90 857.20, 1619.75 853.85, 1630.63 848.62 C 1641.52 843.39, 1648.53 840.36, 1659.59 836.27 C 1670.66 832.18, 1676.73 830.49, 1685.95 828.17 C 1695.17 825.85, 1699.55 825.41, 1705.69 824.67 C 1711.84 823.92, 1714.53 826.25, 1716.68 824.45 C 1718.83 822.65, 1718.89 817.37, 1716.45 815.69" style="stroke: black; fill: black;"/><path d="M 2160.69,804.55 C 2158.07 805.17, 2157.66 807.28, 2155.58 811.49 C 2153.50 815.71, 2152.36 818.77, 2150.29 825.62 C 2148.22 832.48, 2146.64 837.32, 2145.23 845.78 C 2143.83 854.23, 2143.73 859.34, 2143.28 867.90 C 2142.83 876.47, 2142.15 880.87, 2142.99 888.59 C 2143.82 896.31, 2144.50 900.37, 2147.46 906.52 C 2150.41 912.68, 2152.85 915.31, 2157.78 919.36 C 2162.71 923.42, 2165.65 925.10, 2172.11 926.80 C 2178.57 928.51, 2182.41 928.65, 2190.08 927.89 C 2197.74 927.12, 2202.19 926.00, 2210.45 922.97 C 2218.70 919.94, 2222.64 917.65, 2231.37 912.74 C 2240.09 907.82, 2245.27 904.73, 2254.07 898.39 C 2262.88 892.06, 2267.38 888.27, 2275.38 881.07 C 2283.37 873.86, 2287.14 869.56, 2294.05 862.38 C 2300.95 855.19, 2305.27 850.79, 2309.92 845.15 C 2314.56 839.50, 2317.29 837.14, 2317.27 834.15 C 2317.24 831.16, 2312.62 828.28, 2309.79 830.19 C 2306.96 832.10, 2307.52 835.96, 2303.10 843.70 C 2298.67 851.44, 2294.62 857.29, 2287.67 868.90 C 2280.72 880.51, 2276.37 888.03, 2268.36 901.76 C 2260.35 915.50, 2255.90 922.95, 2247.63 937.58 C 2239.36 952.22, 2235.14 959.99, 2227.00 974.94 C 2218.86 989.90, 2215.08 997.69, 2206.93 1012.35 C 2198.78 1027.01, 2194.38 1034.88, 2186.25 1048.26 C 2178.13 1061.64, 2173.89 1068.09, 2166.30 1079.26 C 2158.70 1090.43, 2154.52 1095.95, 2148.27 1104.12 C 2142.01 1112.29, 2139.32 1115.22, 2135.04 1120.10 C 2130.76 1124.99, 2127.59 1126.00, 2126.85 1128.55 C 2126.10 1131.11, 2128.76 1133.76, 2131.33 1132.87 C 2133.91 1131.99, 2135.46 1129.21, 2139.72 1124.11 C 2143.98 1119.00, 2146.58 1115.83, 2152.65 1107.36 C 2158.71 1098.89, 2162.63 1093.16, 2170.04 1081.75 C 2177.44 1070.34, 2181.63 1063.83, 2189.67 1050.31 C 2197.71 1036.80, 2202.12 1028.90, 2210.24 1014.19 C 2218.37 999.47, 2222.14 991.67, 2230.31 976.75 C 2238.48 961.82, 2242.69 954.08, 2251.10 939.56 C 2259.50 925.05, 2263.98 917.63, 2272.33 904.16 C 2280.69 890.68, 2285.39 883.45, 2292.90 872.21 C 2300.41 860.96, 2304.82 855.47, 2309.88 847.91 C 2314.95 840.35, 2318.19 838.23, 2318.23 834.42 C 2318.26 830.62, 2313.10 827.78, 2310.07 828.88 C 2307.05 829.97, 2307.31 834.10, 2303.12 839.90 C 2298.93 845.70, 2295.49 850.54, 2289.11 857.86 C 2282.74 865.18, 2278.97 869.42, 2271.23 876.49 C 2263.48 883.56, 2259.03 887.18, 2250.40 893.22 C 2241.77 899.26, 2236.57 902.21, 2228.07 906.69 C 2219.57 911.17, 2215.66 913.14, 2207.91 915.62 C 2200.17 918.09, 2196.02 918.67, 2189.35 919.08 C 2182.68 919.49, 2179.69 919.09, 2174.56 917.68 C 2169.43 916.26, 2167.54 915.03, 2163.71 912.02 C 2159.88 909.00, 2157.91 907.45, 2155.42 902.59 C 2152.93 897.72, 2152.03 894.51, 2151.26 887.68 C 2150.49 880.85, 2150.99 876.46, 2151.58 868.43 C 2152.17 860.39, 2152.48 855.38, 2154.23 847.52 C 2155.98 839.65, 2157.85 835.33, 2160.33 829.11 C 2162.80 822.90, 2164.94 820.59, 2166.61 816.44 C 2168.28 812.29, 2169.86 810.74, 2168.68 808.36 C 2167.49 805.99, 2163.31 803.92, 2160.69 804.55" style="stroke: black; fill: black;"/><path d="M 2467.37,851.20 C 2468.54 848.09, 2467.98 844.93, 2465.52 842.31 C 2463.06 839.69, 2460.08 838.95, 2455.08 838.10 C 2450.08 837.25, 2446.83 836.91, 2440.50 838.07 C 2434.17 839.24, 2431.35 840.56, 2423.43 843.91 C 2415.51 847.25, 2410.28 849.55, 2400.91 854.80 C 2391.54 860.06, 2385.71 863.54, 2376.57 870.16 C 2367.44 876.78, 2362.64 880.76, 2355.23 887.91 C 2347.83 895.06, 2343.84 898.78, 2339.54 905.90 C 2335.24 913.02, 2333.75 917.05, 2333.74 923.52 C 2333.73 929.99, 2335.13 933.69, 2339.49 938.26 C 2343.86 942.84, 2347.78 944.40, 2355.58 946.39 C 2363.39 948.37, 2368.86 948.77, 2378.52 948.19 C 2388.19 947.61, 2393.54 946.64, 2403.93 943.47 C 2414.32 940.30, 2420.05 937.71, 2430.47 932.33 C 2440.88 926.95, 2446.78 923.36, 2456.02 916.56 C 2465.27 909.76, 2469.67 905.92, 2476.69 898.34 C 2483.72 890.75, 2486.77 886.45, 2491.14 878.63 C 2495.50 870.81, 2497.13 866.54, 2498.53 859.23 C 2499.93 851.92, 2499.79 848.17, 2498.11 842.08 C 2496.44 835.98, 2494.37 832.71, 2490.15 828.75 C 2485.94 824.80, 2482.37 823.46, 2477.02 822.32 C 2471.68 821.18, 2466.07 820.68, 2463.43 823.06 C 2460.79 825.43, 2461.53 832.00, 2463.82 834.21 C 2466.10 836.41, 2471.01 833.53, 2474.86 834.08 C 2478.71 834.64, 2480.20 834.82, 2483.06 836.98 C 2485.92 839.13, 2487.63 840.67, 2489.17 844.87 C 2490.70 849.06, 2491.52 851.84, 2490.73 857.95 C 2489.93 864.07, 2488.89 868.18, 2485.19 875.44 C 2481.48 882.70, 2478.74 886.97, 2472.21 894.25 C 2465.69 901.54, 2461.46 905.32, 2452.57 911.88 C 2443.69 918.45, 2437.88 922.00, 2427.79 927.08 C 2417.70 932.16, 2412.05 934.56, 2402.13 937.29 C 2392.22 940.01, 2387.10 940.52, 2378.22 940.70 C 2369.33 940.88, 2364.22 939.91, 2357.70 938.20 C 2351.17 936.49, 2348.76 935.07, 2345.60 932.14 C 2342.43 929.21, 2341.86 928.06, 2341.89 923.54 C 2341.92 919.03, 2342.16 915.76, 2345.74 909.57 C 2349.31 903.37, 2352.84 899.38, 2359.76 892.55 C 2366.68 885.73, 2371.44 881.72, 2380.34 875.43 C 2389.25 869.14, 2395.06 865.78, 2404.27 861.11 C 2413.49 856.44, 2418.99 854.37, 2426.43 852.07 C 2433.87 849.77, 2436.72 849.37, 2441.47 849.59 C 2446.23 849.82, 2447.84 851.68, 2450.22 853.21 C 2452.60 854.73, 2451.48 856.30, 2453.37 857.22 C 2455.26 858.14, 2456.87 859.03, 2459.67 857.82 C 2462.47 856.62, 2466.20 854.30, 2467.37 851.20" style="stroke: black; fill: black;"/><path d="M 2599.39,825.83 C 2596.91 825.27, 2595.42 824.70, 2593.11 827.06 C 2590.81 829.42, 2590.45 832.48, 2587.86 837.64 C 2585.26 842.80, 2583.75 846.17, 2580.14 852.85 C 2576.52 859.53, 2573.56 863.72, 2569.78 871.04 C 2566.00 878.35, 2563.78 882.06, 2561.23 889.42 C 2558.68 896.78, 2557.47 900.99, 2557.04 907.84 C 2556.61 914.70, 2556.48 918.30, 2559.08 923.67 C 2561.67 929.04, 2564.39 931.76, 2570.00 934.69 C 2575.61 937.62, 2579.25 938.15, 2587.12 938.32 C 2594.98 938.49, 2599.55 938.01, 2609.32 935.53 C 2619.09 933.06, 2624.87 931.01, 2635.98 925.95 C 2647.10 920.89, 2653.14 917.17, 2664.87 910.25 C 2676.61 903.32, 2683.13 899.30, 2694.65 891.34 C 2706.17 883.38, 2712.43 878.64, 2722.49 870.44 C 2732.55 862.25, 2737.35 857.48, 2744.94 850.35 C 2752.54 843.23, 2756.47 840.03, 2760.47 834.80 C 2764.47 829.57, 2765.94 826.47, 2764.93 824.23 C 2763.93 821.98, 2759.40 820.66, 2755.45 823.56 C 2751.50 826.46, 2749.80 831.19, 2745.20 838.73 C 2740.60 846.26, 2737.43 851.85, 2732.47 861.25 C 2727.50 870.65, 2724.70 876.33, 2720.38 885.74 C 2716.06 895.16, 2713.65 900.07, 2710.85 908.33 C 2708.05 916.58, 2707.06 920.57, 2706.38 927.00 C 2705.69 933.43, 2705.67 937.92, 2707.41 940.48 C 2709.15 943.05, 2713.79 942.36, 2715.08 939.81 C 2716.37 937.26, 2713.35 933.58, 2713.87 927.74 C 2714.39 921.90, 2715.12 918.41, 2717.66 910.59 C 2720.21 902.77, 2722.27 897.76, 2726.60 888.65 C 2730.92 879.53, 2734.04 874.04, 2739.29 865.03 C 2744.54 856.02, 2748.09 850.69, 2752.83 843.60 C 2757.58 836.52, 2761.34 833.71, 2763.00 829.61 C 2764.66 825.51, 2762.83 823.03, 2761.14 823.10 C 2759.45 823.17, 2758.62 825.33, 2754.55 829.94 C 2750.48 834.55, 2747.86 838.83, 2740.80 846.16 C 2733.75 853.48, 2729.05 858.32, 2719.27 866.56 C 2709.49 874.80, 2703.29 879.50, 2691.90 887.35 C 2680.50 895.20, 2673.95 899.17, 2662.30 905.81 C 2650.65 912.46, 2644.55 916.01, 2633.64 920.58 C 2622.73 925.14, 2616.98 926.79, 2607.75 928.63 C 2598.53 930.47, 2594.16 930.26, 2587.51 929.77 C 2580.85 929.27, 2578.38 928.23, 2574.48 926.16 C 2570.57 924.10, 2569.62 923.00, 2567.97 919.45 C 2566.33 915.90, 2565.95 913.83, 2566.26 908.40 C 2566.57 902.97, 2567.24 898.89, 2569.52 892.28 C 2571.80 885.67, 2573.73 882.12, 2577.66 875.35 C 2581.58 868.57, 2584.86 864.52, 2589.14 858.41 C 2593.42 852.30, 2595.53 849.23, 2599.06 844.80 C 2602.59 840.37, 2605.51 839.26, 2606.80 836.27 C 2608.09 833.27, 2607.01 831.93, 2605.53 829.85 C 2604.05 827.76, 2601.88 826.38, 2599.39 825.83" style="stroke: black; fill: black;"/></svg>