<svg xmlns="http://www.w3.org/2000/svg" id="canvas" viewBox="453.211 382.347 2159.667 554.857"><path d="M 565.55,435.16 C 564.10 437.27, 565.48 439.53, 565.54 445.61 C 565.59 451.69, 566.03 455.78, 565.82 465.56 C 565.62 475.34, 565.38 481.60, 564.50 494.51 C 563.62 507.42, 562.88 514.97, 561.42 530.09 C 559.96 545.21, 559.02 553.72, 557.21 570.11 C 555.40 586.51, 554.21 595.40, 552.37 612.06 C 550.53 628.71, 549.59 637.45, 548.02 653.40 C 546.46 669.35, 545.83 677.45, 544.56 691.82 C 543.29 706.20, 542.71 713.30, 541.68 725.28 C 540.64 737.26, 540.13 742.73, 539.41 751.71 C 538.69 760.69, 538.37 764.48, 538.08 770.17 C 537.79 775.87, 536.95 778.15, 537.97 780.21 C 538.98 782.27, 541.92 782.43, 543.14 780.48 C 544.36 778.53, 543.77 776.17, 544.06 770.48 C 544.36 764.79, 544.26 761.01, 544.62 752.03 C 544.97 743.05, 545.13 737.56, 545.84 725.58 C 546.56 713.60, 547.08 706.50, 548.19 692.12 C 549.30 677.75, 549.89 669.66, 551.39 653.72 C 552.89 637.78, 553.83 629.07, 555.69 612.43 C 557.56 595.79, 558.76 586.90, 560.70 570.51 C 562.63 554.13, 563.62 545.62, 565.36 530.51 C 567.09 515.39, 568.03 507.86, 569.37 494.93 C 570.71 482.00, 571.33 475.72, 572.08 465.86 C 572.82 456.01, 572.94 451.83, 573.09 445.67 C 573.24 439.52, 574.34 437.18, 572.83 435.08 C 571.32 432.98, 567.01 433.06, 565.55 435.16" style="stroke: black; fill: black;"/><path d="M 457.89,410.69 C 459.69 412.17, 461.33 411.38, 466.07 410.89 C 470.82 410.40, 473.78 409.54, 481.60 408.23 C 489.43 406.92, 494.52 405.91, 505.19 404.33 C 515.85 402.75, 522.32 401.91, 534.93 400.35 C 547.54 398.79, 554.64 397.91, 568.24 396.55 C 581.84 395.19, 589.17 394.53, 602.92 393.57 C 616.67 392.60, 623.88 392.27, 636.98 391.72 C 650.08 391.17, 656.62 391.03, 668.42 390.82 C 680.23 390.60, 685.93 390.61, 696.01 390.65 C 706.08 390.68, 710.73 390.76, 718.80 390.99 C 726.86 391.23, 732.78 392.82, 736.32 391.81 C 739.86 390.80, 739.99 387.20, 736.51 385.97 C 733.02 384.74, 727.00 385.72, 718.89 385.67 C 710.79 385.61, 706.10 385.54, 695.98 385.69 C 685.87 385.84, 680.15 386.04, 668.31 386.43 C 656.48 386.81, 649.93 387.00, 636.80 387.63 C 623.67 388.25, 616.44 388.59, 602.65 389.53 C 588.85 390.48, 581.49 391.12, 567.84 392.33 C 554.19 393.54, 547.08 394.36, 534.40 395.57 C 521.73 396.79, 515.22 397.42, 504.47 398.41 C 493.73 399.41, 488.56 399.96, 480.67 400.56 C 472.77 401.17, 469.71 400.86, 464.99 401.45 C 460.27 402.04, 458.48 401.67, 457.05 403.52 C 455.63 405.37, 456.08 409.22, 457.89 410.69" style="stroke: black; fill: black;"/><path d="M 796.77,401.47 C 795.13 403.17, 795.98 405.01, 795.75 410.24 C 795.53 415.46, 795.91 418.75, 795.63 427.60 C 795.35 436.46, 795.36 442.25, 794.37 454.50 C 793.39 466.76, 792.55 474.06, 790.70 488.86 C 788.86 503.66, 787.70 512.28, 785.16 528.52 C 782.61 544.76, 780.93 553.63, 777.97 570.04 C 775.00 586.45, 773.28 595.07, 770.34 610.57 C 767.41 626.08, 765.89 634.11, 763.29 647.57 C 760.68 661.02, 759.35 667.60, 757.32 677.84 C 755.30 688.09, 753.92 692.42, 753.15 698.79 C 752.38 705.16, 751.60 707.51, 753.47 709.69 C 755.33 711.87, 759.46 712.35, 762.48 709.68 C 765.49 707.01, 765.40 703.42, 768.53 696.32 C 771.66 689.22, 773.30 684.15, 778.11 674.19 C 782.92 664.22, 785.90 657.79, 792.59 646.50 C 799.27 635.22, 803.43 628.63, 811.54 617.75 C 819.64 606.87, 824.27 601.23, 833.10 592.09 C 841.94 582.96, 846.85 578.56, 855.72 572.07 C 864.58 565.57, 869.24 563.00, 877.44 559.61 C 885.64 556.22, 889.74 555.41, 896.71 555.13 C 903.69 554.85, 906.73 555.39, 912.33 558.19 C 917.93 560.99, 920.46 562.97, 924.72 569.14 C 928.98 575.31, 930.97 579.55, 933.63 589.04 C 936.28 598.53, 937.09 604.69, 938.00 616.59 C 938.90 628.48, 938.61 635.73, 938.15 648.53 C 937.68 661.33, 936.83 668.62, 935.67 680.58 C 934.51 692.55, 933.45 698.81, 932.34 708.37 C 931.23 717.92, 930.60 722.20, 930.14 728.37 C 929.67 734.54, 928.99 737.00, 930.00 739.21 C 931.01 741.42, 934.00 741.50, 935.18 739.43 C 936.37 737.35, 935.44 734.93, 935.94 728.83 C 936.44 722.73, 936.81 718.49, 937.69 708.92 C 938.57 699.36, 939.34 693.05, 940.36 681.01 C 941.37 668.96, 942.24 661.66, 942.76 648.71 C 943.28 635.76, 943.69 628.47, 942.94 616.25 C 942.19 604.02, 941.64 597.71, 939.01 587.59 C 936.38 577.47, 934.58 572.66, 929.80 565.65 C 925.03 558.64, 921.82 555.80, 915.14 552.52 C 908.46 549.24, 904.36 548.78, 896.42 549.24 C 888.47 549.71, 884.09 551.02, 875.41 554.86 C 866.72 558.69, 862.07 561.55, 852.99 568.41 C 843.92 575.26, 839.02 579.79, 830.04 589.15 C 821.07 598.50, 816.42 604.21, 808.11 615.18 C 799.80 626.15, 795.59 632.77, 788.50 644.00 C 781.40 655.23, 778.08 661.58, 772.65 671.35 C 767.21 681.11, 764.91 686.12, 761.33 692.82 C 757.75 699.52, 755.35 701.73, 754.74 704.83 C 754.13 707.94, 757.33 709.39, 758.29 708.34 C 759.25 707.29, 758.82 705.51, 759.56 699.57 C 760.29 693.63, 760.47 688.90, 761.97 678.64 C 763.46 668.38, 764.70 661.75, 767.05 648.26 C 769.41 634.77, 770.89 626.73, 773.74 611.21 C 776.59 595.68, 778.31 587.07, 781.30 570.65 C 784.29 554.23, 786.00 545.34, 788.69 529.09 C 791.39 512.84, 792.61 504.22, 794.78 489.41 C 796.94 474.60, 797.99 467.30, 799.52 455.04 C 801.06 442.77, 801.52 436.95, 802.47 428.08 C 803.42 419.20, 803.99 415.93, 804.28 410.66 C 804.57 405.39, 805.43 403.57, 803.92 401.73 C 802.42 399.90, 798.40 399.77, 796.77 401.47" style="stroke: black; fill: black;"/><path d="M 1127.36,592.39 C 1127.72 589.71, 1126.78 587.45, 1124.03 585.08 C 1121.27 582.72, 1118.56 581.94, 1113.59 580.56 C 1108.61 579.19, 1105.39 578.11, 1099.15 578.20 C 1092.91 578.28, 1089.44 578.78, 1082.38 580.99 C 1075.33 583.20, 1071.39 584.67, 1063.86 589.24 C 1056.33 593.81, 1052.15 596.75, 1044.76 603.83 C 1037.36 610.91, 1033.32 615.52, 1026.89 624.65 C 1020.46 633.78, 1017.23 639.35, 1012.62 649.48 C 1008.01 659.61, 1006.05 665.39, 1003.83 675.30 C 1001.61 685.21, 1001.05 690.47, 1001.52 699.04 C 1001.99 707.60, 1002.90 711.90, 1006.16 718.13 C 1009.42 724.37, 1012.13 727.34, 1017.82 730.22 C 1023.51 733.09, 1027.49 733.51, 1034.62 732.52 C 1041.75 731.53, 1045.71 729.76, 1053.46 725.28 C 1061.22 720.80, 1065.36 717.41, 1073.41 710.13 C 1081.46 702.84, 1085.80 698.04, 1093.71 688.85 C 1101.62 679.67, 1105.77 673.90, 1112.97 664.20 C 1120.16 654.51, 1123.70 649.18, 1129.71 640.38 C 1135.71 631.59, 1138.48 626.98, 1142.97 620.23 C 1147.46 613.47, 1150.46 610.33, 1152.16 606.61 C 1153.87 602.89, 1152.21 601.36, 1151.51 601.65 C 1150.80 601.94, 1149.65 602.92, 1148.64 608.06 C 1147.64 613.19, 1147.63 617.88, 1146.49 627.33 C 1145.34 636.78, 1144.33 643.65, 1142.92 655.33 C 1141.51 667.00, 1140.57 674.26, 1139.44 685.71 C 1138.31 697.17, 1137.63 703.19, 1137.27 712.60 C 1136.91 722.01, 1137.06 726.24, 1137.63 732.77 C 1138.20 739.29, 1138.65 741.80, 1140.13 745.20 C 1141.61 748.59, 1143.30 749.27, 1145.02 749.75 C 1146.74 750.23, 1148.14 749.05, 1148.73 747.59 C 1149.31 746.12, 1148.78 745.58, 1147.96 742.44 C 1147.13 739.30, 1145.61 737.83, 1144.60 731.88 C 1143.60 725.94, 1142.91 721.84, 1142.94 712.71 C 1142.97 703.59, 1143.57 697.56, 1144.73 686.24 C 1145.89 674.93, 1146.95 667.69, 1148.73 656.12 C 1150.50 644.55, 1151.95 637.84, 1153.62 628.39 C 1155.29 618.95, 1156.98 614.77, 1157.09 608.91 C 1157.20 603.05, 1156.45 600.46, 1154.15 599.10 C 1151.85 597.74, 1148.90 598.53, 1145.60 602.10 C 1142.31 605.68, 1141.69 609.87, 1137.66 616.96 C 1133.63 624.05, 1131.16 628.69, 1125.45 637.56 C 1119.73 646.44, 1116.19 651.73, 1109.09 661.33 C 1101.99 670.93, 1097.82 676.65, 1089.94 685.56 C 1082.06 694.48, 1077.63 699.11, 1069.70 705.92 C 1061.77 712.72, 1057.50 715.71, 1050.29 719.59 C 1043.07 723.46, 1039.46 724.50, 1033.62 725.30 C 1027.79 726.10, 1025.40 725.66, 1021.11 723.59 C 1016.82 721.52, 1014.89 719.92, 1012.17 714.93 C 1009.44 709.94, 1008.11 706.34, 1007.49 698.64 C 1006.88 690.94, 1007.13 685.84, 1009.09 676.44 C 1011.06 667.04, 1012.90 661.36, 1017.33 651.62 C 1021.76 641.89, 1024.95 636.45, 1031.23 627.75 C 1037.52 619.05, 1041.56 614.64, 1048.76 608.12 C 1055.96 601.59, 1060.09 598.96, 1067.23 595.12 C 1074.38 591.28, 1078.23 590.23, 1084.48 588.92 C 1090.74 587.61, 1093.62 587.80, 1098.52 588.57 C 1103.41 589.33, 1105.51 590.94, 1108.98 592.76 C 1112.44 594.57, 1113.20 596.49, 1115.85 597.64 C 1118.49 598.79, 1119.90 599.55, 1122.20 598.51 C 1124.50 597.46, 1126.99 595.08, 1127.36 592.39" style="stroke: black; fill: black;"/><path d="M 1240.03,597.23 C 1238.46 599.04, 1239.48 600.92, 1239.58 605.76 C 1239.68 610.59, 1240.43 613.74, 1240.53 621.40 C 1240.63 629.05, 1240.57 634.39, 1240.07 644.05 C 1239.57 653.71, 1239.04 659.65, 1238.01 669.69 C 1236.99 679.73, 1236.09 685.42, 1234.93 694.24 C 1233.77 703.07, 1232.78 707.42, 1232.22 713.80 C 1231.66 720.17, 1230.14 723.00, 1232.12 726.12 C 1234.10 729.25, 1238.70 730.88, 1242.10 729.42 C 1245.51 727.97, 1245.79 724.87, 1249.15 718.86 C 1252.52 712.85, 1254.13 708.36, 1258.92 699.38 C 1263.72 690.40, 1266.70 684.44, 1273.11 673.97 C 1279.52 663.49, 1283.41 657.26, 1290.97 647.00 C 1298.54 636.75, 1302.94 631.19, 1310.92 622.68 C 1318.89 614.16, 1323.25 610.21, 1330.84 604.43 C 1338.42 598.65, 1342.34 596.45, 1348.85 593.76 C 1355.37 591.08, 1358.41 590.63, 1363.43 591.01 C 1368.44 591.39, 1370.16 592.11, 1373.94 595.67 C 1377.73 599.22, 1379.61 601.76, 1382.36 608.79 C 1385.10 615.82, 1386.30 620.86, 1387.68 630.82 C 1389.05 640.77, 1389.12 647.20, 1389.23 658.56 C 1389.34 669.93, 1388.77 676.64, 1388.23 687.63 C 1387.70 698.62, 1386.95 704.47, 1386.56 713.51 C 1386.16 722.55, 1386.12 726.79, 1386.26 732.84 C 1386.39 738.88, 1385.95 741.62, 1387.25 743.73 C 1388.54 745.85, 1391.69 745.62, 1392.73 743.42 C 1393.78 741.22, 1392.55 738.68, 1392.49 732.73 C 1392.42 726.79, 1392.21 722.68, 1392.41 713.70 C 1392.61 704.73, 1393.07 698.90, 1393.50 687.86 C 1393.93 676.83, 1394.57 670.10, 1394.58 658.54 C 1394.59 646.98, 1394.76 640.50, 1393.56 630.08 C 1392.37 619.65, 1391.57 614.34, 1388.62 606.40 C 1385.67 598.47, 1383.74 594.83, 1378.79 590.38 C 1373.85 585.93, 1370.37 584.57, 1363.90 584.15 C 1357.44 583.73, 1353.73 585.02, 1346.49 588.27 C 1339.24 591.52, 1335.48 594.15, 1327.68 600.40 C 1319.89 606.65, 1315.60 610.74, 1307.51 619.51 C 1299.42 628.27, 1295.01 633.90, 1287.24 644.23 C 1279.48 654.56, 1275.52 660.80, 1268.69 671.15 C 1261.85 681.51, 1258.46 687.33, 1253.06 695.99 C 1247.66 704.65, 1245.09 709.06, 1241.69 714.44 C 1238.30 719.83, 1236.37 720.97, 1236.10 722.91 C 1235.83 724.84, 1239.55 725.84, 1240.34 724.12 C 1241.14 722.39, 1239.89 720.11, 1240.08 714.28 C 1240.26 708.44, 1240.47 703.74, 1241.27 694.95 C 1242.06 686.16, 1242.96 680.42, 1244.07 670.34 C 1245.18 660.26, 1245.91 654.29, 1246.82 644.54 C 1247.73 634.79, 1248.19 629.40, 1248.63 621.58 C 1249.07 613.75, 1249.29 610.39, 1249.04 605.42 C 1248.80 600.45, 1249.21 598.36, 1247.41 596.72 C 1245.60 595.08, 1241.59 595.42, 1240.03 597.23" style="stroke: black; fill: black;"/><path d="M 1523.19,453.77 C 1521.79 455.50, 1523.07 456.75, 1523.14 461.71 C 1523.20 466.66, 1523.76 469.95, 1523.52 478.55 C 1523.29 487.15, 1523.10 492.87, 1521.95 504.70 C 1520.80 516.53, 1519.80 523.78, 1517.76 537.72 C 1515.72 551.65, 1514.22 559.62, 1511.76 574.37 C 1509.30 589.13, 1507.78 597.11, 1505.46 611.47 C 1503.14 625.83, 1501.92 633.23, 1500.14 646.18 C 1498.36 659.12, 1497.58 665.44, 1496.57 676.20 C 1495.55 686.96, 1495.25 691.89, 1495.05 700.00 C 1494.84 708.11, 1495.11 711.56, 1495.55 716.75 C 1495.99 721.93, 1496.03 723.59, 1497.26 725.92 C 1498.49 728.25, 1500.24 728.25, 1501.71 728.39 C 1503.18 728.53, 1503.85 727.63, 1504.61 726.61 C 1505.37 725.59, 1505.73 725.48, 1505.52 723.29 C 1505.31 721.09, 1504.48 720.31, 1503.56 715.63 C 1502.63 710.96, 1501.35 707.72, 1500.88 699.90 C 1500.41 692.09, 1500.54 687.20, 1501.20 676.56 C 1501.86 665.92, 1502.55 659.60, 1504.16 646.70 C 1505.77 633.81, 1506.95 626.42, 1509.24 612.08 C 1511.53 597.75, 1513.04 589.77, 1515.61 575.03 C 1518.18 560.30, 1519.74 552.34, 1522.08 538.40 C 1524.43 524.46, 1525.63 517.22, 1527.33 505.35 C 1529.03 493.47, 1529.68 487.78, 1530.60 479.02 C 1531.53 470.27, 1532.06 466.77, 1531.97 461.57 C 1531.87 456.37, 1531.89 454.58, 1530.14 453.02 C 1528.38 451.46, 1524.59 452.03, 1523.19 453.77" style="stroke: black; fill: black;"/><path d="M 1616.86,584.13 C 1614.80 583.04, 1613.39 583.78, 1609.32 585.35 C 1605.25 586.92, 1602.71 588.61, 1596.51 591.98 C 1590.31 595.34, 1586.08 597.58, 1578.33 602.17 C 1570.57 606.76, 1565.93 609.60, 1557.72 614.92 C 1549.51 620.25, 1544.83 623.21, 1537.29 628.81 C 1529.74 634.41, 1525.75 637.31, 1519.98 642.93 C 1514.21 648.54, 1511.47 651.21, 1508.43 656.88 C 1505.39 662.55, 1504.35 665.77, 1504.79 671.28 C 1505.23 676.79, 1506.69 679.62, 1510.65 684.42 C 1514.61 689.21, 1517.69 691.22, 1524.57 695.25 C 1531.46 699.28, 1536.10 701.29, 1545.06 704.56 C 1554.01 707.83, 1559.29 709.09, 1569.36 711.59 C 1579.43 714.08, 1584.92 715.22, 1595.42 717.04 C 1605.91 718.85, 1611.67 719.67, 1621.83 720.67 C 1632.00 721.68, 1637.49 721.66, 1646.25 722.05 C 1655.01 722.45, 1659.34 722.65, 1665.64 722.65 C 1671.94 722.66, 1675.38 723.42, 1677.76 722.08 C 1680.14 720.73, 1679.97 717.11, 1677.55 715.94 C 1675.12 714.76, 1671.86 716.19, 1665.64 716.19 C 1659.42 716.19, 1655.12 716.13, 1646.46 715.94 C 1637.80 715.75, 1632.35 716.07, 1622.33 715.23 C 1612.31 714.40, 1606.65 713.60, 1596.34 711.77 C 1586.03 709.93, 1580.58 708.71, 1570.80 706.05 C 1561.01 703.39, 1555.87 701.91, 1547.41 698.46 C 1538.96 695.01, 1534.59 692.66, 1528.51 688.79 C 1522.44 684.91, 1520.12 682.74, 1517.04 679.09 C 1513.95 675.44, 1513.46 674.29, 1513.08 670.54 C 1512.69 666.80, 1512.80 664.96, 1515.12 660.37 C 1517.44 655.79, 1519.51 652.94, 1524.67 647.62 C 1529.84 642.29, 1533.68 639.20, 1540.96 633.73 C 1548.24 628.26, 1552.91 625.29, 1561.09 620.25 C 1569.27 615.22, 1573.99 612.60, 1581.86 608.57 C 1589.73 604.54, 1594.08 602.78, 1600.43 600.10 C 1606.77 597.43, 1609.75 597.04, 1613.59 595.18 C 1617.42 593.33, 1618.96 593.02, 1619.61 590.81 C 1620.27 588.60, 1618.92 585.22, 1616.86 584.13" style="stroke: black; fill: black;"/><path d="M 1974.83,588.46 C 1973.21 590.03, 1973.14 591.19, 1973.55 595.07 C 1973.97 598.95, 1975.26 601.56, 1976.91 607.84 C 1978.55 614.11, 1979.63 618.39, 1981.78 626.44 C 1983.94 634.49, 1985.07 639.36, 1987.68 648.08 C 1990.30 656.80, 1991.64 661.80, 1994.85 670.07 C 1998.06 678.33, 1999.79 682.59, 2003.73 689.41 C 2007.67 696.23, 2009.66 699.37, 2014.55 704.18 C 2019.44 708.98, 2022.21 711.28, 2028.18 713.44 C 2034.15 715.60, 2037.73 715.91, 2044.42 714.97 C 2051.12 714.03, 2054.64 712.55, 2061.63 708.72 C 2068.63 704.90, 2072.30 702.15, 2079.40 695.85 C 2086.50 689.55, 2090.28 685.25, 2097.13 677.22 C 2103.98 669.19, 2107.46 664.34, 2113.67 655.70 C 2119.87 647.06, 2122.88 642.17, 2128.16 634.03 C 2133.44 625.88, 2135.80 621.43, 2140.07 614.99 C 2144.34 608.55, 2146.70 605.75, 2149.50 601.82 C 2152.29 597.89, 2154.01 596.87, 2154.05 595.33 C 2154.08 593.80, 2150.55 592.60, 2149.69 594.14 C 2148.83 595.69, 2149.83 597.31, 2149.75 603.06 C 2149.67 608.81, 2149.95 613.13, 2149.29 622.90 C 2148.64 632.67, 2148.13 638.79, 2146.49 651.90 C 2144.84 665.00, 2143.74 672.84, 2141.07 688.42 C 2138.40 703.99, 2136.88 712.89, 2133.15 729.78 C 2129.41 746.66, 2127.26 755.77, 2122.40 772.84 C 2117.53 789.91, 2114.77 799.00, 2108.84 815.14 C 2102.91 831.28, 2099.45 839.51, 2092.76 853.53 C 2086.06 867.56, 2082.33 874.20, 2075.36 885.26 C 2068.39 896.31, 2064.68 901.30, 2057.91 908.80 C 2051.13 916.30, 2047.42 919.12, 2041.46 922.75 C 2035.51 926.39, 2032.64 926.79, 2028.11 926.99 C 2023.59 927.20, 2022.10 926.43, 2018.83 923.78 C 2015.57 921.13, 2014.19 918.40, 2011.81 913.74 C 2009.43 909.09, 2008.55 905.32, 2006.92 900.51 C 2005.28 895.70, 2005.89 891.51, 2003.65 889.69 C 2001.42 887.87, 1996.98 888.65, 1995.73 891.41 C 1994.49 894.16, 1995.88 898.04, 1997.43 903.46 C 1998.97 908.87, 2000.11 913.05, 2003.45 918.48 C 2006.78 923.92, 2009.04 927.52, 2014.09 930.63 C 2019.13 933.74, 2022.56 934.64, 2028.66 934.02 C 2034.75 933.40, 2038.03 931.99, 2044.56 927.54 C 2051.10 923.10, 2054.53 919.85, 2061.33 911.80 C 2068.14 903.74, 2071.69 898.62, 2078.59 887.25 C 2085.48 875.89, 2089.16 869.18, 2095.80 854.97 C 2102.45 840.77, 2105.89 832.48, 2111.81 816.23 C 2117.74 799.98, 2120.51 790.85, 2125.43 773.71 C 2130.36 756.57, 2132.54 747.44, 2136.43 730.52 C 2140.31 713.59, 2141.89 704.68, 2144.85 689.10 C 2147.80 673.51, 2149.00 665.68, 2151.22 652.59 C 2153.43 639.50, 2154.37 633.46, 2155.93 623.65 C 2157.49 613.84, 2158.45 609.90, 2159.00 603.54 C 2159.56 597.19, 2160.69 594.81, 2158.71 591.88 C 2156.73 588.95, 2152.37 587.89, 2149.09 588.91 C 2145.82 589.93, 2145.26 592.44, 2142.33 596.97 C 2139.40 601.50, 2138.24 604.76, 2134.45 611.57 C 2130.65 618.37, 2128.41 622.80, 2123.36 630.99 C 2118.32 639.18, 2115.35 644.02, 2109.24 652.52 C 2103.13 661.02, 2099.61 665.77, 2092.82 673.48 C 2086.03 681.19, 2082.17 685.28, 2075.27 691.06 C 2068.36 696.85, 2064.68 699.17, 2058.30 702.40 C 2051.92 705.63, 2048.86 706.50, 2043.36 707.23 C 2037.87 707.96, 2035.56 707.71, 2030.82 706.04 C 2026.08 704.38, 2023.91 702.90, 2019.65 698.89 C 2015.40 694.88, 2013.31 692.21, 2009.56 685.98 C 2005.81 679.74, 2003.97 675.67, 2000.90 667.72 C 1997.83 659.77, 1996.47 654.85, 1994.20 646.24 C 1991.92 637.63, 1991.04 632.75, 1989.53 624.68 C 1988.01 616.61, 1987.48 612.26, 1986.62 605.91 C 1985.76 599.56, 1986.21 596.66, 1985.22 592.92 C 1984.23 589.17, 1983.74 588.09, 1981.66 587.20 C 1979.59 586.30, 1976.45 586.88, 1974.83 588.46" style="stroke: black; fill: black;"/><path d="M 2325.86,597.41 C 2325.56 594.78, 2324.38 592.75, 2321.27 591.34 C 2318.16 589.93, 2315.52 590.24, 2310.31 590.37 C 2305.10 590.51, 2301.75 590.39, 2295.22 592.02 C 2288.68 593.66, 2285.08 594.98, 2277.62 598.57 C 2270.16 602.16, 2265.85 604.44, 2257.91 609.98 C 2249.97 615.52, 2245.47 618.88, 2237.93 626.26 C 2230.38 633.65, 2226.33 638.23, 2220.19 646.88 C 2214.05 655.54, 2210.96 660.54, 2207.23 669.55 C 2203.49 678.55, 2202.15 683.46, 2201.51 691.91 C 2200.88 700.35, 2201.31 704.85, 2204.05 711.78 C 2206.80 718.71, 2209.35 722.19, 2215.23 726.57 C 2221.12 730.95, 2225.40 732.52, 2233.48 733.68 C 2241.56 734.84, 2246.36 734.41, 2255.63 732.38 C 2264.90 730.35, 2270.19 728.35, 2279.84 723.53 C 2289.50 718.70, 2294.82 715.26, 2303.90 708.26 C 2312.97 701.26, 2317.52 696.81, 2325.22 688.55 C 2332.91 680.28, 2336.62 675.61, 2342.39 666.93 C 2348.15 658.26, 2350.65 653.55, 2354.03 645.18 C 2357.42 636.82, 2358.43 632.52, 2359.32 625.12 C 2360.21 617.73, 2359.93 614.21, 2358.48 608.19 C 2357.03 602.17, 2355.69 599.21, 2352.08 595.02 C 2348.46 590.83, 2345.52 589.15, 2340.42 587.26 C 2335.32 585.38, 2332.02 585.32, 2326.58 585.60 C 2321.14 585.88, 2317.85 587.16, 2313.23 588.66 C 2308.61 590.15, 2306.14 590.80, 2303.47 593.08 C 2300.81 595.36, 2299.85 597.63, 2299.89 600.04 C 2299.92 602.45, 2301.60 604.20, 2303.65 605.12 C 2305.69 606.05, 2307.30 605.53, 2310.11 604.66 C 2312.92 603.80, 2314.18 602.32, 2317.72 600.80 C 2321.25 599.27, 2323.90 597.77, 2327.80 597.06 C 2331.71 596.34, 2333.75 596.34, 2337.24 597.20 C 2340.74 598.06, 2342.55 598.74, 2345.26 601.36 C 2347.98 603.98, 2349.36 605.66, 2350.84 610.29 C 2352.32 614.92, 2353.11 617.93, 2352.67 624.50 C 2352.24 631.06, 2351.60 635.19, 2348.67 643.11 C 2345.75 651.03, 2343.47 655.68, 2338.04 664.09 C 2332.62 672.50, 2329.01 677.12, 2321.56 685.15 C 2314.11 693.17, 2309.63 697.52, 2300.80 704.20 C 2291.97 710.89, 2286.71 714.15, 2277.43 718.59 C 2268.14 723.03, 2262.98 724.72, 2254.38 726.41 C 2245.79 728.11, 2241.47 728.15, 2234.46 727.08 C 2227.45 726.00, 2224.17 724.59, 2219.31 721.04 C 2214.45 717.49, 2212.50 715.07, 2210.15 709.33 C 2207.80 703.58, 2207.09 699.85, 2207.55 692.32 C 2208.00 684.79, 2209.00 680.13, 2212.42 671.67 C 2215.83 663.22, 2218.74 658.31, 2224.63 650.04 C 2230.51 641.77, 2234.49 637.31, 2241.85 630.34 C 2249.21 623.37, 2253.65 620.17, 2261.41 615.20 C 2269.16 610.22, 2273.52 608.18, 2280.61 605.45 C 2287.71 602.71, 2291.13 602.01, 2296.86 601.52 C 2302.59 601.03, 2305.24 602.09, 2309.26 603.00 C 2313.28 603.90, 2314.25 605.73, 2316.96 606.03 C 2319.66 606.33, 2321.00 606.22, 2322.78 604.49 C 2324.56 602.77, 2326.16 600.04, 2325.86 597.41" style="stroke: black; fill: black;"/><path d="M 2437.41,590.57 C 2435.15 591.30, 2434.53 592.93, 2432.80 597.08 C 2431.08 601.22, 2430.49 604.33, 2428.77 611.29 C 2427.06 618.25, 2425.85 622.96, 2424.22 631.88 C 2422.60 640.79, 2421.66 646.21, 2420.65 655.86 C 2419.63 665.51, 2419.00 670.86, 2419.13 680.12 C 2419.26 689.38, 2419.45 694.22, 2421.31 702.16 C 2423.16 710.10, 2424.41 714.00, 2428.39 719.81 C 2432.37 725.63, 2435.14 728.28, 2441.19 731.23 C 2447.25 734.18, 2451.11 734.87, 2458.66 734.56 C 2466.22 734.26, 2470.41 733.17, 2478.96 729.70 C 2487.52 726.22, 2492.25 723.55, 2501.44 717.19 C 2510.64 710.82, 2515.71 706.51, 2524.94 697.87 C 2534.17 689.22, 2539.06 683.81, 2547.59 673.95 C 2556.13 664.09, 2560.42 658.26, 2567.61 648.58 C 2574.80 638.90, 2578.06 633.57, 2583.55 625.54 C 2589.05 617.51, 2591.70 613.70, 2595.10 608.42 C 2598.49 603.14, 2600.64 601.23, 2600.52 599.14 C 2600.40 597.05, 2595.95 595.76, 2594.48 597.96 C 2593.02 600.16, 2594.01 603.32, 2593.20 610.13 C 2592.38 616.94, 2591.62 621.91, 2590.40 632.00 C 2589.17 642.10, 2588.34 648.83, 2587.08 660.60 C 2585.83 672.37, 2584.88 679.24, 2584.14 690.84 C 2583.39 702.43, 2583.03 708.38, 2583.36 718.58 C 2583.69 728.79, 2584.04 733.95, 2585.77 741.87 C 2587.50 749.79, 2589.18 753.00, 2592.03 758.17 C 2594.87 763.33, 2596.88 765.52, 2599.99 767.71 C 2603.09 769.90, 2605.58 769.81, 2607.54 769.13 C 2609.50 768.44, 2610.13 766.03, 2609.79 764.28 C 2609.45 762.52, 2608.06 762.42, 2605.85 760.37 C 2603.64 758.32, 2601.57 758.01, 2598.75 754.01 C 2595.92 750.02, 2593.76 747.51, 2591.73 740.38 C 2589.71 733.25, 2589.15 728.20, 2588.64 718.36 C 2588.12 708.52, 2588.41 702.59, 2589.18 691.17 C 2589.96 679.75, 2590.90 672.89, 2592.51 661.27 C 2594.12 649.64, 2595.40 643.00, 2597.24 633.05 C 2599.09 623.09, 2600.35 618.46, 2601.72 611.49 C 2603.10 604.52, 2605.44 601.59, 2604.11 598.21 C 2602.79 594.82, 2598.13 593.24, 2595.11 594.55 C 2592.10 595.86, 2592.25 599.14, 2589.05 604.76 C 2585.84 610.38, 2584.12 614.43, 2579.09 622.65 C 2574.05 630.86, 2570.85 636.17, 2563.88 645.85 C 2556.90 655.52, 2552.63 661.31, 2544.20 671.01 C 2535.77 680.72, 2530.87 686.03, 2521.71 694.38 C 2512.56 702.72, 2507.45 706.84, 2498.44 712.74 C 2489.44 718.64, 2484.71 720.93, 2476.71 723.88 C 2468.70 726.83, 2464.90 727.36, 2458.44 727.51 C 2451.97 727.66, 2449.25 726.96, 2444.39 724.62 C 2439.54 722.29, 2437.52 720.62, 2434.16 715.82 C 2430.80 711.03, 2429.38 707.81, 2427.60 700.65 C 2425.83 693.49, 2425.41 688.84, 2425.28 680.03 C 2425.15 671.22, 2425.73 665.93, 2426.95 656.61 C 2428.17 647.28, 2429.31 641.95, 2431.39 633.40 C 2433.47 624.84, 2435.09 620.34, 2437.35 613.82 C 2439.61 607.29, 2441.35 604.85, 2442.70 600.77 C 2444.04 596.70, 2445.13 595.50, 2444.07 593.46 C 2443.01 591.42, 2439.66 589.85, 2437.41 590.57" style="stroke: black; fill: black;"/></svg>